<svg xmlns="http://www.w3.org/2000/svg" width="192" height="192" viewBox="0 0 192 192">
  <rect width="192" height="192" rx="38.400000000000006" fill="#0a0a0a"/>
  <circle cx="28.799999999999997" cy="28.799999999999997" r="7.68" fill="#71717a" opacity="0.8"/><circle cx="62.4" cy="28.799999999999997" r="7.68" fill="#71717a" opacity="0.8"/><circle cx="96" cy="28.799999999999997" r="7.68" fill="#71717a" opacity="0.8"/><circle cx="129.60000000000002" cy="28.799999999999997" r="7.68" fill="#71717a" opacity="0.8"/><circle cx="163.2" cy="28.799999999999997" r="7.68" fill="#71717a" opacity="0.8"/><circle cx="28.799999999999997" cy="62.4" r="7.68" fill="#71717a" opacity="0.8"/><circle cx="62.4" cy="62.4" r="7.68" fill="#71717a" opacity="0.8"/><circle cx="96" cy="62.4" r="7.68" fill="#71717a" opacity="0.8"/><circle cx="129.60000000000002" cy="62.4" r="7.68" fill="#71717a" opacity="0.8"/><circle cx="163.2" cy="62.4" r="7.68" fill="#71717a" opacity="0.8"/><circle cx="28.799999999999997" cy="96" r="7.68" fill="#71717a" opacity="0.8"/><circle cx="62.4" cy="96" r="7.68" fill="#71717a" opacity="0.8"/><circle cx="96" cy="96" r="7.68" fill="#71717a" opacity="0.8"/><circle cx="129.60000000000002" cy="96" r="10.751999999999999" fill="#22d3ee" opacity="1"/><circle cx="129.60000000000002" cy="96" r="19.2" fill="#22d3ee" opacity="0.2"/><circle cx="163.2" cy="96" r="7.68" fill="none" stroke="#3f3f46" stroke-width="0.96"/><circle cx="28.799999999999997" cy="129.60000000000002" r="7.68" fill="none" stroke="#3f3f46" stroke-width="0.96"/><circle cx="62.4" cy="129.60000000000002" r="7.68" fill="none" stroke="#3f3f46" stroke-width="0.96"/><circle cx="96" cy="129.60000000000002" r="7.68" fill="none" stroke="#3f3f46" stroke-width="0.96"/><circle cx="129.60000000000002" cy="129.60000000000002" r="7.68" fill="none" stroke="#3f3f46" stroke-width="0.96"/><circle cx="163.2" cy="129.60000000000002" r="7.68" fill="none" stroke="#3f3f46" stroke-width="0.96"/><circle cx="28.799999999999997" cy="163.2" r="7.68" fill="none" stroke="#3f3f46" stroke-width="0.96"/><circle cx="62.4" cy="163.2" r="7.68" fill="none" stroke="#3f3f46" stroke-width="0.96"/><circle cx="96" cy="163.2" r="7.68" fill="none" stroke="#3f3f46" stroke-width="0.96"/><circle cx="129.60000000000002" cy="163.2" r="7.68" fill="none" stroke="#3f3f46" stroke-width="0.96"/><circle cx="163.2" cy="163.2" r="7.68" fill="none" stroke="#3f3f46" stroke-width="0.96"/>
</svg>