<svg xmlns="http://www.w3.org/2000/svg" width="512" height="512" viewBox="0 0 512 512">
  <rect width="512" height="512" rx="102.4" fill="#0a0a0a"/>
  <circle cx="76.8" cy="76.8" r="20.48" fill="#71717a" opacity="0.8"/><circle cx="166.39999999999998" cy="76.8" r="20.48" fill="#71717a" opacity="0.8"/><circle cx="256" cy="76.8" r="20.48" fill="#71717a" opacity="0.8"/><circle cx="345.59999999999997" cy="76.8" r="20.48" fill="#71717a" opacity="0.8"/><circle cx="435.2" cy="76.8" r="20.48" fill="#71717a" opacity="0.8"/><circle cx="76.8" cy="166.39999999999998" r="20.48" fill="#71717a" opacity="0.8"/><circle cx="166.39999999999998" cy="166.39999999999998" r="20.48" fill="#71717a" opacity="0.8"/><circle cx="256" cy="166.39999999999998" r="20.48" fill="#71717a" opacity="0.8"/><circle cx="345.59999999999997" cy="166.39999999999998" r="20.48" fill="#71717a" opacity="0.8"/><circle cx="435.2" cy="166.39999999999998" r="20.48" fill="#71717a" opacity="0.8"/><circle cx="76.8" cy="256" r="20.48" fill="#71717a" opacity="0.8"/><circle cx="166.39999999999998" cy="256" r="20.48" fill="#71717a" opacity="0.8"/><circle cx="256" cy="256" r="20.48" fill="#71717a" opacity="0.8"/><circle cx="345.59999999999997" cy="256" r="28.671999999999997" fill="#22d3ee" opacity="1"/><circle cx="345.59999999999997" cy="256" r="51.2" fill="#22d3ee" opacity="0.2"/><circle cx="435.2" cy="256" r="20.48" fill="none" stroke="#3f3f46" stroke-width="2.56"/><circle cx="76.8" cy="345.59999999999997" r="20.48" fill="none" stroke="#3f3f46" stroke-width="2.56"/><circle cx="166.39999999999998" cy="345.59999999999997" r="20.48" fill="none" stroke="#3f3f46" stroke-width="2.56"/><circle cx="256" cy="345.59999999999997" r="20.48" fill="none" stroke="#3f3f46" stroke-width="2.56"/><circle cx="345.59999999999997" cy="345.59999999999997" r="20.48" fill="none" stroke="#3f3f46" stroke-width="2.56"/><circle cx="435.2" cy="345.59999999999997" r="20.48" fill="none" stroke="#3f3f46" stroke-width="2.56"/><circle cx="76.8" cy="435.2" r="20.48" fill="none" stroke="#3f3f46" stroke-width="2.56"/><circle cx="166.39999999999998" cy="435.2" r="20.48" fill="none" stroke="#3f3f46" stroke-width="2.56"/><circle cx="256" cy="435.2" r="20.48" fill="none" stroke="#3f3f46" stroke-width="2.56"/><circle cx="345.59999999999997" cy="435.2" r="20.48" fill="none" stroke="#3f3f46" stroke-width="2.56"/><circle cx="435.2" cy="435.2" r="20.48" fill="none" stroke="#3f3f46" stroke-width="2.56"/>
</svg>